<?xml version="1.0" encoding="utf-8"?>
<!-- Generator: Adobe Illustrator 23.0.2, SVG Export Plug-In . SVG Version: 6.00 Build 0)  -->
<svg version="1.1" id="Layer_1" xmlns="http://www.w3.org/2000/svg" xmlns:xlink="http://www.w3.org/1999/xlink" x="0px" y="0px"
	 viewBox="0 0 24 24" style="enable-background:new 0 0 24 24;" xml:space="preserve">
<style type="text/css">
	.st0{opacity:0.4;}
	.st1{fill-opacity:0;}
	.st2{opacity:0.3;}
</style>
<g class="st0">
	<g>
		<rect x="5" y="5.3" class="st1" width="14.1" height="14.1"/>
		<path d="M17.3,9.4c-0.2-0.4-0.6-0.6-1-0.6H8.8L8.5,7.5C8.4,7.2,8.2,7,7.9,7H6.7C6.4,7,6.1,7.3,6.1,7.6c0,0.3,0.3,0.6,0.6,0.6h0.7
			l1.6,6c0.1,0.3,0.3,0.4,0.6,0.4h5.3c0.2,0,0.4-0.1,0.5-0.3l1.9-3.8C17.5,10.1,17.5,9.7,17.3,9.4z M14.6,13.5h-4.5l-1-3.5h7.2
			L14.6,13.5z"/>
		<circle cx="9.4" cy="16.7" r="0.9"/>
		<circle cx="15.2" cy="16.7" r="0.9"/>
	</g>
</g>
<g class="st2">
	<path d="M6.6,10.9H5.4c-0.1,0-0.1-0.1-0.1-0.1v0c0-0.1,0.1-0.1,0.1-0.1h1.2c0.1,0,0.1,0.1,0.1,0.1v0C6.7,10.8,6.7,10.9,6.6,10.9z"
		/>
	<path d="M6.2,10.1v1.2c0,0.1-0.1,0.1-0.1,0.1h0c-0.1,0-0.1-0.1-0.1-0.1v-1.2C5.9,10.1,5.9,10,6,10h0C6.1,10,6.2,10.1,6.2,10.1z"/>
</g>
<g class="st2">
	<path d="M7.8,13.5H7.1c-0.1,0-0.1,0-0.1-0.1l0,0c0-0.1,0-0.1,0.1-0.1h0.7c0.1,0,0.1,0,0.1,0.1l0,0C7.9,13.5,7.9,13.5,7.8,13.5z"/>
	<path d="M7.5,13v0.7c0,0.1,0,0.1-0.1,0.1l0,0c-0.1,0-0.1,0-0.1-0.1V13c0-0.1,0-0.1,0.1-0.1l0,0C7.5,12.9,7.5,13,7.5,13z"/>
</g>
<g class="st2">
	<path d="M7.2,15.8H6.3c-0.1,0-0.1,0-0.1-0.1v0c0-0.1,0-0.1,0.1-0.1h0.9c0.1,0,0.1,0,0.1,0.1v0C7.3,15.7,7.2,15.8,7.2,15.8z"/>
	<path d="M6.8,15.2v0.9c0,0.1,0,0.1-0.1,0.1h0c-0.1,0-0.1,0-0.1-0.1v-0.9c0-0.1,0-0.1,0.1-0.1h0C6.8,15.1,6.8,15.2,6.8,15.2z"/>
</g>
<g class="st2">
	<path d="M18.5,14.6l1.2,0c0.1,0,0.1,0.1,0.1,0.1l0,0c0,0.1-0.1,0.1-0.1,0.1l-1.2,0c-0.1,0-0.1-0.1-0.1-0.1l0,0
		C18.4,14.6,18.5,14.6,18.5,14.6z"/>
	<path d="M19,15.3l0-1.2c0-0.1,0.1-0.1,0.1-0.1l0,0c0.1,0,0.1,0.1,0.1,0.1l0,1.2c0,0.1-0.1,0.1-0.1,0.1l0,0C19,15.4,19,15.4,19,15.3
		z"/>
</g>
<g class="st2">
	<path d="M17.4,11.9l0.7,0c0.1,0,0.1,0,0.1,0.1l0,0c0,0.1,0,0.1-0.1,0.1l-0.7,0c-0.1,0-0.1,0-0.1-0.1l0,0
		C17.2,12,17.3,11.9,17.4,11.9z"/>
	<path d="M17.6,12.4l0-0.7c0-0.1,0-0.1,0.1-0.1l0,0c0.1,0,0.1,0,0.1,0.1l0,0.7c0,0.1,0,0.1-0.1,0.1l0,0
		C17.7,12.5,17.6,12.4,17.6,12.4z"/>
</g>
<g class="st2">
	<path d="M18,9.7l0.9,0c0.1,0,0.1,0,0.1,0.1l0,0c0,0.1,0,0.1-0.1,0.1l-0.9,0c-0.1,0-0.1,0-0.1-0.1l0,0C17.9,9.7,18,9.7,18,9.7z"/>
	<path d="M18.3,10.2l0-0.9c0-0.1,0-0.1,0.1-0.1l0,0c0.1,0,0.1,0,0.1,0.1l0,0.9c0,0.1,0,0.1-0.1,0.1l0,0
		C18.4,10.3,18.3,10.3,18.3,10.2z"/>
</g>
<g class="st2">
	<path d="M10.1,7.5l0,0.7c0,0.1,0,0.1-0.1,0.1l0,0c-0.1,0-0.1,0-0.1-0.1l0-0.7C10,7.5,10,7.4,10.1,7.5L10.1,7.5
		C10.1,7.4,10.1,7.5,10.1,7.5z"/>
	<path d="M9.7,7.7l0.7,0c0.1,0,0.1,0,0.1,0.1l0,0c0,0.1,0,0.1-0.1,0.1l-0.7,0C9.6,7.9,9.6,7.9,9.7,7.7L9.7,7.7
		C9.6,7.8,9.7,7.7,9.7,7.7z"/>
</g>
<g class="st2">
	<path d="M12.3,6.3l0,0.7c0,0.1,0,0.1-0.1,0.1l0,0c-0.1,0-0.1,0-0.1-0.1l0-0.7c0-0.1,0-0.1,0.1-0.1l0,0C12.3,6.2,12.3,6.2,12.3,6.3z
		"/>
	<path d="M11.9,6.5l0.7,0c0.1,0,0.1,0,0.1,0.1v0c0,0.1,0,0.1-0.1,0.1l-0.7,0c-0.1,0-0.1,0-0.1-0.1l0,0C11.8,6.6,11.8,6.5,11.9,6.5z"
		/>
</g>
<g class="st2">
	<path d="M15.9,6.9l0,0.9c0,0.1,0,0.1-0.1,0.1l0,0c-0.1,0-0.1,0-0.1-0.1l0-0.9c0-0.1,0-0.1,0.1-0.1l0,0C15.8,6.8,15.9,6.8,15.9,6.9z
		"/>
	<path d="M15.3,7.2l0.9,0c0.1,0,0.1,0,0.1,0.1l0,0c0,0.1,0,0.1-0.1,0.1l-0.9,0c-0.1,0-0.1,0-0.1-0.1l0,0C15.2,7.2,15.2,7.2,15.3,7.2
		z"/>
</g>
</svg>
